<svg xmlns="http://www.w3.org/2000/svg" width="17.743" height="17.743" viewBox="0 0 17.743 17.743"><defs><style>.a{fill:#475993;}</style></defs><path class="a" d="M15.354,0H2.393A2.391,2.391,0,0,0,0,2.391V15.352a2.391,2.391,0,0,0,2.391,2.391H8.785L8.8,11.4H7.149a.389.389,0,0,1-.389-.387L6.752,8.972a.389.389,0,0,1,.389-.39H8.785V6.607a3.226,3.226,0,0,1,3.444-3.54h1.678a.389.389,0,0,1,.389.389V5.179a.389.389,0,0,1-.388.389h-1.03c-1.112,0-1.327.528-1.327,1.3v1.71h2.443a.389.389,0,0,1,.386.434l-.242,2.044a.389.389,0,0,1-.386.343h-2.19l-.011,6.34h3.8a2.391,2.391,0,0,0,2.391-2.391V2.391A2.391,2.391,0,0,0,15.354,0Z" transform="translate(-0.002)"/></svg>