<svg xmlns="http://www.w3.org/2000/svg" width="16.663" height="16.999" viewBox="0 0 16.663 16.999"><defs><style>.a{fill:#4285f4;}.b{fill:#34a853;}.c{fill:#fbbc04;}.d{fill:#ea4335;}</style></defs><g transform="translate(0.05 0.018)"><path class="a" d="M280.263,224.827a9.991,9.991,0,0,0-.147-1.727H272.1v3.273h4.591a3.934,3.934,0,0,1-1.7,2.583v2.124h2.739A8.3,8.3,0,0,0,280.263,224.827Z" transform="translate(-263.651 -216.15)"/><path class="b" d="M36.5,331.171a8.136,8.136,0,0,0,5.634-2.052L39.39,327a5.155,5.155,0,0,1-7.664-2.7H28.9v2.189A8.5,8.5,0,0,0,36.5,331.171Z" transform="translate(-28.046 -314.19)"/><path class="c" d="M3.677,155.443a5.091,5.091,0,0,1,0-3.254V150H.854a8.506,8.506,0,0,0,0,7.633Z" transform="translate(0 -145.333)"/><path class="d" d="M36.5,3.346a4.619,4.619,0,0,1,3.26,1.274h0l2.427-2.427A8.169,8.169,0,0,0,36.5-.018a8.5,8.5,0,0,0-7.6,4.684l2.823,2.189A5.084,5.084,0,0,1,36.5,3.346Z" transform="translate(-28.046 0)"/></g></svg>